<?xml version="1.0" standalone="no"?>
<!DOCTYPE svg PUBLIC "-//W3C//DTD SVG 20010904//EN"
 "http://www.w3.org/TR/2001/REC-SVG-20010904/DTD/svg10.dtd">
<svg version="1.0" xmlns="http://www.w3.org/2000/svg"
 width="1254.000000pt" height="1254.000000pt" viewBox="0 0 1254.000000 1254.000000"
 preserveAspectRatio="xMidYMid meet">

<g transform="translate(0.000000,1254.000000) scale(0.100000,-0.100000)"
fill="#000000" stroke="none">
<path d="M0 6270 l0 -6270 6270 0 6270 0 0 6270 0 6270 -6270 0 -6270 0 0
-6270z m6625 4255 c500 -66 956 -251 1363 -554 166 -124 436 -392 558 -556
235 -314 392 -638 489 -1009 58 -219 76 -356 80 -586 1 -113 1 -176 -1 -140
-25 447 -113 799 -291 1154 -229 458 -555 830 -965 1104 -356 237 -705 375
-1138 449 -141 25 -179 27 -430 27 -293 1 -352 -4 -600 -54 -853 -171 -1587
-741 -1979 -1537 -177 -359 -259 -693 -285 -1153 -2 -36 -2 27 -1 140 4 224
18 338 67 545 93 390 263 746 517 1080 150 198 448 478 666 625 392 265 887
437 1375 480 138 12 428 4 575 -15z m-44 -1040 c118 -148 329 -414 469 -590
140 -176 274 -344 299 -373 l44 -53 119 118 119 118 22 -26 c12 -14 141 -165
287 -335 146 -170 349 -408 450 -529 209 -250 433 -514 529 -625 121 -140
-734 734 -934 955 -126 139 -319 342 -327 344 -4 0 -1 -20 7 -46 19 -61 19
-92 0 -137 l-15 -35 72 -108 c83 -124 124 -179 268 -359 57 -71 93 -120 79
-108 -13 11 -80 70 -148 130 -69 60 -135 116 -147 124 -155 105 -224 164 -289
246 -122 155 -374 473 -511 644 -253 317 -628 760 -643 760 -4 0 -5 -17 -3
-38 2 -23 -6 -63 -22 -106 l-26 -69 42 -55 c24 -31 69 -84 102 -119 32 -35 55
-63 52 -63 -4 0 -34 18 -67 41 l-60 40 -67 -54 c-37 -30 -77 -60 -90 -66 -12
-6 -35 -37 -52 -69 -16 -31 -41 -76 -55 -100 l-27 -43 101 50 101 51 86 -64
c48 -35 121 -83 163 -107 42 -23 110 -74 151 -113 41 -39 103 -97 138 -129 35
-31 61 -57 58 -57 -3 0 -58 33 -123 74 -65 40 -143 81 -173 91 -30 10 -90 31
-132 47 l-78 29 -74 -53 c-41 -29 -96 -66 -123 -83 -36 -23 -66 -57 -126 -144
-43 -62 -76 -115 -74 -117 2 -2 50 19 107 47 99 48 104 49 120 32 75 -80 166
-184 242 -280 50 -62 94 -113 97 -113 4 0 17 21 29 46 13 26 25 44 28 42 2 -3
-2 -29 -10 -59 -7 -30 -11 -60 -9 -66 3 -8 23 -13 49 -13 71 0 144 -20 175
-49 16 -14 48 -55 72 -90 54 -84 76 -98 167 -112 41 -6 92 -20 113 -31 97 -49
104 -181 12 -238 -19 -12 -39 -29 -45 -38 -6 -11 -9 -12 -10 -4 0 7 11 28 25
46 37 48 35 106 -5 140 -17 14 -45 27 -63 30 -172 25 -181 28 -219 66 -20 20
-40 50 -43 66 -11 50 -13 53 -47 74 -22 13 -51 20 -84 20 -112 0 -138 9 -216
73 -68 56 -260 187 -274 187 -3 0 -80 -41 -170 -91 -145 -80 -163 -93 -152
-108 7 -9 28 -36 48 -61 101 -128 111 -138 -370 365 -58 61 -137 148 -176 195
-77 91 -191 207 -197 199 -24 -28 -179 -273 -187 -295 -6 -16 -31 -72 -56
-125 l-46 -96 -97 -56 c-53 -30 -163 -89 -246 -131 l-150 -75 -180 -167 c-99
-92 -274 -258 -390 -369 -115 -110 -217 -205 -225 -210 -16 -10 79 97 690 775
403 447 868 950 880 950 3 0 50 -47 104 -105 l97 -105 87 108 c138 172 348
425 612 740 135 162 251 302 258 312 17 23 -3 45 283 -315z m-1505 -1325 c-71
-142 -93 -164 -251 -250 -50 -27 -122 -75 -160 -105 -39 -31 -78 -61 -89 -67
-28 -15 235 282 317 358 64 60 238 196 243 191 2 -1 -26 -58 -60 -127z m154
-638 c12 -26 31 -57 43 -70 l22 -23 -28 10 c-19 8 -27 7 -27 0 0 -8 -5 -7 -15
1 -23 19 -19 -3 10 -59 13 -27 46 -68 72 -91 43 -38 45 -42 21 -36 -18 4 -28
2 -28 -5 0 -8 -5 -8 -15 1 -13 11 -14 10 -8 -6 6 -16 3 -15 -25 5 -24 16 -32
19 -32 8 0 -26 59 -96 105 -122 53 -31 57 -40 15 -31 -17 3 -30 1 -30 -4 0 -6
-8 -5 -20 2 -10 7 -22 9 -26 5 -12 -12 117 -136 153 -149 18 -7 33 -16 33 -20
0 -8 -58 -13 -89 -8 -13 2 -13 0 0 -16 13 -16 12 -17 -5 -11 -11 5 -22 3 -26
-3 -4 -7 -17 -2 -35 12 -16 12 -26 17 -21 10 10 -17 -4 -15 -26 5 -29 26 -21
1 15 -44 34 -42 75 -80 112 -102 17 -10 12 -11 -29 -6 -38 5 -47 4 -40 -7 4
-7 -5 -2 -21 12 -28 25 -28 25 -22 3 3 -13 1 -23 -4 -23 -5 0 -9 4 -9 8 0 5
-7 17 -15 28 -14 18 -14 18 -8 -3 3 -13 1 -23 -4 -23 -5 0 -10 -21 -11 -46 -3
-79 -42 -104 -42 -27 0 46 0 46 -20 28 -11 -10 -23 -15 -26 -12 -4 3 -19 0
-35 -8 -43 -23 -44 -18 -4 26 34 38 43 66 12 41 -13 -12 -99 -34 -105 -27 -2
2 9 10 25 18 l28 16 -40 -6 c-24 -3 -54 1 -74 10 l-33 14 31 6 c35 7 103 51
139 90 l23 25 -48 -5 c-41 -4 -45 -2 -28 8 58 36 135 117 135 143 0 4 -12 1
-26 -9 -26 -16 -26 -16 -19 7 l7 23 -27 -25 c-23 -20 -27 -21 -21 -6 5 15 2
17 -16 13 -13 -2 -34 -2 -48 2 -24 7 -23 7 15 27 44 23 145 135 145 161 0 14
-3 14 -22 -3 -20 -18 -21 -18 -15 -1 5 14 3 16 -9 9 -8 -5 -29 -6 -45 -4 l-31
4 38 31 c46 39 94 113 94 146 0 16 -3 21 -8 14 -8 -13 -62 -29 -62 -19 0 4 9
16 20 28 23 25 60 118 60 151 0 12 3 33 7 47 6 20 9 14 15 -33 4 -32 17 -79
28 -105z m-639 -188 c12 -31 37 -74 57 -96 34 -37 34 -38 8 -29 -19 8 -26 7
-26 -2 0 -6 -7 -3 -15 7 -11 14 -15 16 -15 5 -1 -10 -5 -8 -17 6 -15 19 -15
19 -10 -12 12 -62 50 -123 115 -184 64 -60 65 -62 33 -56 -27 6 -32 4 -27 -8
7 -19 -3 -19 -28 0 -27 21 -35 19 -29 -7 4 -20 1 -19 -26 10 -25 26 -31 29
-31 14 0 -42 104 -157 173 -191 l42 -21 -40 3 c-22 2 -48 7 -59 12 -16 7 -17
6 -6 -15 14 -26 1 -22 -37 13 -51 45 -5 -42 51 -97 18 -19 43 -37 56 -41 16
-5 19 -9 10 -15 -15 -9 31 -41 88 -62 42 -16 41 -28 -4 -28 -31 0 -35 -2 -24
-15 16 -19 7 -19 -30 0 -27 14 -44 5 -20 -10 6 -3 10 -10 10 -15 0 -13 -37 0
-56 21 -25 27 -37 23 -18 -6 14 -22 14 -25 1 -25 -9 0 -30 12 -48 28 -24 19
-31 22 -26 10 8 -22 -1 -23 -25 -1 -32 29 -19 -1 27 -59 47 -60 112 -110 173
-133 l37 -15 -45 3 c-25 2 -54 7 -64 12 -16 7 -18 5 -13 -8 8 -21 3 -21 -30 0
-26 17 -26 17 -14 -5 16 -30 8 -28 -35 11 l-37 32 6 -35 7 -35 -19 23 c-11 12
-21 28 -24 35 -9 25 -12 -1 -9 -79 l3 -81 122 -7 c329 -19 638 -81 1231 -247
318 -90 616 -163 792 -194 l139 -25 -125 5 c-256 11 -592 57 -1024 140 -744
143 -997 175 -1392 175 -320 0 -513 -17 -844 -75 -61 -11 -13 10 145 63 83 28
203 63 267 79 l118 28 0 34 c0 29 -2 32 -15 21 -9 -7 -18 -10 -22 -7 -3 4 -15
0 -27 -8 -11 -8 -28 -15 -37 -15 -14 0 -11 7 12 29 32 32 42 66 11 38 -22 -20
-36 -22 -26 -4 6 9 4 9 -7 1 -18 -13 -61 -16 -54 -3 4 5 -7 9 -23 9 -46 0 -44
11 6 36 26 13 63 39 81 58 l34 35 -39 -5 c-43 -6 -45 -8 32 48 31 22 64 69 64
90 0 6 -10 3 -22 -8 -19 -17 -21 -17 -15 -1 4 9 2 17 -3 17 -5 0 -14 -8 -19
-17 -6 -10 -11 -14 -11 -10 0 4 -10 2 -22 -4 -21 -11 -22 -11 -9 4 12 15 10
17 -25 17 l-39 0 43 21 c26 13 59 43 83 74 42 56 53 91 19 60 -20 -18 -21 -18
-14 1 7 19 7 19 -14 0 -12 -11 -22 -14 -22 -8 0 7 -10 12 -22 12 -21 0 -20 2
9 21 38 24 93 107 93 139 0 23 0 23 -16 4 -8 -10 -12 -13 -8 -5 5 10 1 11 -15
6 -21 -6 -21 -5 4 31 25 37 38 74 51 149 7 40 7 40 16 -25 6 -41 20 -85 39
-118 17 -30 25 -51 20 -47 -6 3 -11 1 -11 -6 0 -7 -8 -5 -20 6 -19 17 -20 17
-20 0 0 -28 46 -101 82 -129 31 -24 32 -26 10 -26 -13 0 -21 -4 -18 -8 8 -13
-31 -7 -48 7 -12 10 -16 10 -16 2 0 -24 21 -51 76 -96 59 -47 61 -51 20 -36
-17 7 -26 7 -29 -2 -3 -9 -8 -9 -20 2 -12 9 -17 10 -17 2 0 -17 90 -110 122
-127 25 -13 31 -12 65 9 42 27 156 137 149 144 -3 3 -11 1 -18 -3 -7 -5 -22
-9 -33 -10 -11 -1 -36 -5 -55 -9 -33 -7 -31 -5 25 32 66 44 102 80 134 133 28
47 27 59 -3 31 l-25 -23 6 23 c6 22 4 21 -24 -8 -33 -35 -70 -48 -40 -15 26
29 22 48 -5 30 -13 -8 -32 -18 -42 -21 -16 -6 -17 -5 -6 8 12 14 8 15 -28 9
-50 -8 -53 0 -9 22 45 24 107 75 107 89 0 6 12 22 26 36 27 25 80 119 67 119
-4 0 -17 -10 -30 -22 -23 -22 -33 -12 -11 10 9 9 9 12 1 12 -7 0 -15 -4 -18
-10 -3 -5 -16 -15 -27 -21 -18 -10 -20 -9 -15 5 5 13 -1 16 -31 16 l-37 0 30
19 c51 32 103 93 129 154 32 71 33 86 4 61 -19 -16 -20 -16 -9 -1 8 9 11 20 7
24 -3 3 -6 2 -6 -4 0 -10 -28 -22 -62 -27 -13 -2 -10 6 12 31 51 58 81 138 96
258 l8 60 13 -82 c7 -45 22 -108 34 -139z m2427 -409 c287 -286 522 -523 522
-527 0 -5 -45 -8 -100 -8 l-99 0 -38 42 c-21 23 -59 65 -84 93 -25 27 -108
122 -185 210 -76 88 -206 237 -289 331 -82 94 -182 209 -222 255 -119 140 -83
151 -289 -88 -98 -114 -259 -302 -358 -418 -178 -208 -415 -475 -422 -475 -1
0 -87 -25 -190 -55 -103 -31 -192 -54 -197 -52 -5 1 57 79 139 172 82 92 187
212 234 265 61 70 176 173 415 372 182 152 382 321 445 376 l115 100 40 -36
c22 -20 275 -271 563 -557z m192 385 c0 -22 -4 -40 -10 -40 -6 0 -11 -72 -12
-182 l-3 -183 -85 89 -85 88 -2 91 c-1 49 -7 95 -13 101 -5 5 -10 25 -10 43
l0 33 110 0 110 0 0 -40z m664 -113 c7 -61 39 -134 74 -170 l26 -28 -24 3
c-14 2 -31 10 -38 18 -12 13 -13 13 -8 -2 3 -12 1 -15 -10 -11 -7 3 -14 1 -14
-3 0 -22 62 -114 99 -147 23 -20 41 -39 41 -41 0 -3 -12 -3 -26 0 -16 3 -23 1
-19 -6 8 -13 -1 -13 -27 1 -15 8 -19 8 -14 0 14 -21 -12 -11 -27 12 -13 17
-16 18 -16 6 -2 -38 140 -199 174 -199 7 0 17 -5 21 -11 4 -8 -9 -10 -45 -8
-54 4 -59 1 -38 -20 18 -20 -11 -4 -42 23 l-25 21 18 -28 17 -28 -30 16 c-17
8 -31 20 -31 25 0 6 -4 10 -9 10 -6 0 -5 -13 1 -32 14 -40 89 -112 148 -144
43 -22 43 -23 15 -22 -16 1 -36 6 -42 11 -9 6 -13 5 -13 -4 0 -10 -3 -10 -12
-1 -7 7 -16 12 -22 12 -17 0 57 -70 101 -96 49 -30 63 -25 131 39 40 39 57 67
30 51 -7 -4 -28 -9 -48 -11 -31 -2 -33 -1 -15 10 38 23 105 94 105 112 0 14
-3 15 -15 5 -9 -8 -15 -8 -15 -2 0 6 -12 9 -27 6 l-28 -4 27 20 c58 45 91 138
38 110 -21 -11 -29 3 -9 16 18 11 49 87 49 122 0 49 17 38 24 -17 3 -27 18
-66 32 -86 17 -26 20 -36 10 -32 -9 4 -16 2 -16 -4 0 -6 -4 -7 -10 -4 -18 11
-10 -21 13 -52 13 -18 34 -41 48 -52 24 -20 24 -20 2 -14 -15 3 -23 1 -23 -7
0 -9 -7 -7 -20 5 -18 16 -20 16 -20 2 0 -22 56 -84 94 -105 l31 -16 -30 -6
c-16 -3 -32 -2 -34 3 -2 5 -7 3 -11 -4 -7 -10 -11 -10 -24 0 -13 11 -16 11
-16 -2 0 -8 16 -29 35 -46 42 -37 44 -44 8 -30 l-28 10 21 -21 c12 -12 37 -26
55 -30 l34 -8 -37 -1 c-21 -1 -38 -5 -38 -9 0 -14 42 -48 85 -70 l40 -21 -37
-1 c-20 0 -38 -5 -40 -11 -3 -9 -10 -9 -27 1 -22 11 -23 11 -18 -9 3 -12 1
-19 -4 -15 -5 3 -9 0 -9 -7 0 -7 -8 -6 -25 5 -33 22 -35 21 -35 -14 0 -24 -4
-30 -21 -30 -20 0 -21 4 -17 45 5 40 4 44 -10 33 -14 -11 -15 -10 -8 6 6 19 6
19 -12 3 -21 -19 -37 -23 -26 -6 5 9 -4 10 -32 5 l-39 -7 46 29 c45 29 79 66
79 86 0 5 -8 2 -18 -7 -22 -20 -37 -22 -26 -5 4 7 -8 1 -26 -12 -23 -17 -32
-19 -28 -8 5 13 0 14 -35 7 -23 -4 -55 -5 -72 -2 l-30 6 20 -23 20 -23 -30 8
c-16 4 -39 7 -50 7 -11 -1 -30 6 -43 14 l-23 15 16 -30 c8 -17 28 -38 43 -46
l27 -16 -34 6 c-19 3 -43 13 -53 22 -13 12 -18 13 -18 3 0 -10 -5 -9 -18 3
-27 24 -32 21 -32 -19 0 -31 -3 -35 -22 -32 -22 3 -23 7 -22 78 l2 74 -26 -29
c-24 -28 -25 -29 -19 -6 5 21 1 19 -35 -15 -29 -28 -37 -32 -28 -16 14 29 8
37 -18 23 -12 -6 -33 -11 -49 -11 l-28 0 35 21 c47 28 86 66 121 116 32 46 39
71 10 36 -10 -12 -21 -20 -23 -17 -3 2 -21 -3 -41 -11 -49 -20 -52 -19 -32 12
l18 26 -35 -21 c-41 -25 -56 -28 -39 -8 11 12 6 15 -30 18 l-43 3 52 32 c29
18 52 38 52 45 1 7 17 25 38 39 20 14 46 41 56 60 13 22 15 30 5 23 -8 -6 -23
-14 -33 -18 -17 -6 -17 -5 -5 11 13 15 12 16 -9 10 -45 -11 -56 4 -19 27 39
24 76 66 101 114 18 35 9 45 -12 12 -7 -11 -17 -20 -23 -20 -5 0 -7 5 -3 11 5
8 1 8 -14 0 -26 -14 -35 -14 -27 -1 3 6 -4 10 -17 10 -21 0 -19 4 20 42 48 46
86 107 96 153 6 28 5 29 -9 11 -8 -11 -15 -15 -15 -8 0 8 -7 9 -25 2 -28 -11
-33 1 -8 21 27 23 62 110 69 173 8 64 18 58 28 -17z m-822 -637 c111 -117 152
-166 141 -169 -19 -4 -306 9 -301 14 2 2 41 9 88 15 144 19 138 12 78 89 -53
68 -124 150 -287 331 -210 233 -135 159 281 -280z m-662 115 c0 -52 0 -98 0
-102 0 -5 -41 -8 -91 -8 l-91 0 -2 98 c-1 54 0 100 3 103 2 2 44 4 93 4 l88 0
0 -95z m238 -7 l-3 -103 -92 -3 -93 -3 0 106 0 105 95 0 96 0 -3 -102z m-235
-253 l-1 -100 -91 -3 -91 -3 -2 63 c-1 35 -3 79 -4 98 0 19 1 39 3 43 3 4 46
6 96 5 l92 -3 -2 -100z m237 0 l0 -105 -95 0 -95 0 0 105 0 105 95 0 95 0 0
-105z m-805 -6 c69 -1 75 -2 40 -10 -64 -13 -230 -36 -234 -32 -3 2 6 15 20
29 20 21 30 25 59 20 19 -3 71 -6 115 -7z m420 -259 c145 -14 282 -38 615
-110 552 -119 771 -145 1125 -137 127 3 329 15 450 26 235 21 659 36 590 21
-22 -4 -104 -16 -181 -24 -78 -9 -254 -36 -390 -61 -400 -70 -448 -76 -669
-82 -328 -8 -508 22 -995 169 -404 121 -654 182 -830 201 -19 2 12 5 70 5 58
1 155 -3 215 -8z m-3110 -745 c41 -9 107 -29 147 -45 40 -17 78 -30 84 -30 10
0 28 -229 19 -238 -2 -2 -17 25 -34 60 -123 258 -485 315 -692 109 -101 -101
-149 -235 -149 -412 0 -250 105 -446 288 -536 70 -35 83 -38 181 -41 89 -3
117 0 171 18 85 28 148 70 209 136 27 30 52 54 55 54 3 0 6 -24 6 -52 0 -52
-1 -54 -48 -85 -130 -88 -281 -130 -437 -120 -290 19 -495 170 -571 423 -29
93 -24 256 9 360 82 249 316 412 595 413 51 1 126 -6 167 -14z m2860 -185
c198 -466 377 -868 403 -905 15 -22 43 -48 62 -57 35 -18 33 -18 -145 -18
-165 1 -178 2 -153 16 31 16 43 51 33 92 -8 34 -115 293 -127 308 -6 9 -74 11
-231 10 l-222 -2 -57 -144 c-32 -80 -58 -158 -57 -175 0 -38 20 -74 50 -91 21
-12 7 -13 -106 -13 l-130 0 38 20 c23 12 51 40 71 72 27 43 428 990 451 1065
14 49 38 14 120 -178z m-1873 160 c-18 -11 -37 -32 -42 -46 -6 -14 -10 -124
-10 -245 l0 -219 321 0 320 0 -3 223 c-4 239 -9 266 -57 292 -23 13 -8 14 139
14 137 1 161 -1 141 -12 -13 -6 -34 -25 -45 -40 -21 -28 -21 -36 -21 -527 0
-491 0 -499 21 -527 11 -15 32 -34 45 -40 20 -11 -5 -13 -146 -12 -151 0 -167
1 -140 13 58 26 60 37 63 319 l3 257 -320 0 -321 0 0 -249 c0 -138 4 -261 10
-275 5 -14 24 -35 42 -46 l33 -20 -165 0 -165 0 33 20 c18 11 37 32 42 46 13
34 13 994 0 1028 -5 14 -24 35 -42 46 l-33 20 165 0 165 0 -33 -20z m3052 1
c-17 -11 -36 -34 -43 -52 -8 -22 -11 -183 -11 -519 0 -452 1 -489 18 -510 17
-20 25 -22 182 -22 145 0 172 3 222 21 68 26 129 84 155 146 20 50 38 60 29
18 -3 -16 -8 -59 -11 -98 -4 -38 -9 -82 -11 -97 l-6 -28 -411 0 c-378 0 -409
2 -381 16 17 8 36 26 43 40 14 32 16 1000 1 1038 -5 14 -24 35 -42 46 l-33 20
165 0 165 0 -31 -19z m1721 -18 c11 -71 21 -183 16 -183 -4 0 -17 20 -30 46
-29 53 -69 89 -131 118 -40 18 -65 20 -225 21 l-180 0 -3 -247 -2 -248 171 0
c158 0 174 2 210 22 22 12 39 24 39 27 0 3 9 17 20 31 l20 25 -1 -135 c0 -121
-1 -132 -13 -105 -35 78 -87 95 -294 95 l-153 0 3 -260 c3 -233 5 -261 21
-277 16 -16 37 -18 180 -17 240 1 323 33 388 149 17 31 34 54 36 51 5 -4 -16
-140 -32 -213 l-5 -23 -418 0 c-354 1 -412 3 -387 14 59 26 60 28 63 521 2
248 0 475 -3 505 -6 45 -13 60 -42 87 l-34 33 389 0 390 0 7 -37z m1299 6 c3
-17 6 -68 6 -113 l0 -81 -24 50 c-24 53 -80 109 -125 127 -14 5 -67 12 -117
15 l-90 6 -13 -30 c-9 -22 -11 -151 -9 -529 3 -544 2 -534 61 -559 29 -13 15
-14 -138 -14 -150 0 -167 1 -140 13 61 28 60 13 63 562 2 338 -1 510 -8 529
l-11 28 -92 -5 c-50 -3 -108 -12 -127 -20 -46 -20 -98 -73 -122 -125 -10 -24
-21 -43 -24 -43 -6 0 2 110 12 183 l6 37 443 0 443 0 6 -31z m-3507 -1241
c-101 -119 -340 -447 -452 -622 -13 -19 15 -1 86 56 123 99 198 138 263 138
113 0 115 -105 5 -204 -54 -48 -160 -97 -251 -116 l-57 -11 23 -44 c13 -24 27
-70 31 -102 8 -66 27 -93 64 -93 70 0 226 134 332 286 76 108 171 194 264 240
161 80 276 49 245 -66 -24 -87 -181 -174 -391 -215 -55 -10 -103 -182 -62
-227 22 -24 107 -24 172 1 133 50 316 214 467 416 l90 120 52 3 c57 3 62 -3
33 -39 -22 -29 -154 -218 -166 -239 -5 -8 29 24 76 71 148 151 252 219 337
219 48 0 82 -26 82 -62 0 -41 -45 -120 -140 -248 -125 -170 -153 -226 -125
-253 46 -46 231 87 342 245 30 43 78 103 105 133 146 160 368 236 450 155 17
-17 31 -30 33 -28 1 2 37 53 80 113 81 114 233 314 284 375 25 30 36 35 90 40
34 3 61 4 61 3 0 -2 -54 -73 -120 -158 -272 -353 -490 -674 -530 -783 -50
-132 -31 -231 52 -273 177 -91 490 38 704 291 76 91 99 100 33 13 -193 -256
-489 -401 -719 -352 -149 32 -218 182 -160 346 11 31 18 58 16 60 -2 3 -19
-14 -37 -37 -44 -55 -175 -153 -233 -175 -60 -23 -113 -15 -145 21 -20 24 -23
36 -19 90 l4 62 -63 -57 c-119 -108 -215 -149 -282 -122 -31 14 -51 48 -51 89
1 56 59 153 189 311 76 93 98 136 80 157 -8 10 -21 13 -38 9 -103 -26 -373
-292 -516 -507 l-38 -58 -53 0 c-30 0 -54 2 -54 5 0 2 33 55 73 117 97 150 97
150 41 97 -194 -183 -376 -262 -498 -215 -59 23 -80 56 -80 127 l-1 56 -83
-73 c-131 -115 -218 -147 -292 -109 -42 21 -51 46 -60 148 -6 74 -11 94 -28
108 -27 21 -19 29 29 29 54 0 151 33 210 71 70 44 129 120 129 165 0 32 -2 34
-33 34 -69 0 -246 -134 -366 -277 -38 -45 -99 -127 -136 -182 l-67 -101 -54 0
c-30 0 -54 2 -54 5 0 3 32 53 70 110 39 57 70 107 70 111 0 3 -28 -19 -62 -49
-136 -118 -244 -176 -343 -184 -80 -6 -132 12 -163 57 -20 30 -23 44 -20 98 2
34 3 62 1 62 -1 0 -15 -12 -30 -26 -95 -89 -204 -157 -288 -178 -80 -21 -130
-20 -181 4 -69 34 -88 102 -58 206 5 19 2 21 -41 20 -41 -1 -50 3 -76 32 l-30
33 -21 -28 c-56 -74 -216 -221 -270 -247 -107 -52 -177 -45 -205 21 -15 37
-11 83 13 148 4 11 -30 -17 -76 -63 -96 -96 -148 -129 -213 -138 -40 -6 -48
-3 -71 19 -20 20 -26 36 -26 70 0 66 23 119 99 234 38 57 67 103 65 103 -3 0
-36 -16 -74 -35 -100 -51 -220 -82 -419 -110 -246 -35 -348 -68 -426 -137 -50
-43 -75 -97 -75 -158 0 -54 10 -81 43 -117 11 -13 16 -23 10 -23 -5 0 -19 10
-30 23 -102 111 -51 273 112 354 66 33 142 51 331 78 98 14 215 34 259 45 124
30 249 97 338 180 73 68 76 70 127 70 l52 0 -38 -52 c-222 -307 -284 -410
-284 -474 0 -31 3 -34 28 -34 75 0 188 109 374 360 72 96 133 178 137 182 3 4
30 10 60 14 44 6 53 4 49 -7 -3 -8 -49 -77 -103 -154 -129 -187 -197 -331
-179 -380 9 -22 67 -19 115 5 52 27 177 147 238 228 44 59 49 70 53 131 8 109
60 201 113 201 57 0 38 -107 -40 -224 -43 -64 -45 -69 -31 -91 38 -57 120 -48
159 18 65 108 211 231 322 269 71 25 145 23 173 -2 28 -27 29 -81 2 -125 -42
-68 -180 -139 -326 -167 l-69 -14 -27 -54 c-35 -67 -38 -140 -8 -170 25 -25
98 -27 160 -5 112 40 257 157 354 286 121 161 260 258 386 267 59 4 70 2 89
-17 29 -29 28 -88 -1 -131 -46 -68 -151 -122 -315 -163 l-82 -20 -22 -51 c-33
-75 -36 -135 -9 -163 30 -33 116 -32 187 1 114 54 248 163 345 283 30 37 113
151 183 253 161 232 232 326 310 409 56 58 67 65 111 71 27 3 51 5 53 3 2 -1
-12 -22 -32 -45z m-368 -1502 l31 -30 -29 -30 c-17 -17 -43 -55 -60 -85 l-29
-54 -21 42 c-12 23 -38 60 -58 81 l-35 40 30 35 c17 19 43 55 58 80 l27 46 27
-48 c16 -26 42 -61 59 -77z m-449 -20 l55 -13 -45 -14 c-49 -15 -84 -15 -574
1 -170 6 -312 13 -314 15 -3 3 48 6 114 6 65 1 207 5 314 9 314 11 392 10 450
-4z m1430 -5 l175 -7 -135 -7 c-74 -4 -260 -11 -412 -16 -241 -8 -285 -7 -330
7 l-53 16 45 12 c45 13 273 11 710 -5z"/>
<path d="M4066 6358 c23 -39 62 -83 93 -105 l36 -25 -42 6 c-45 6 -52 0 -30
-24 9 -11 8 -11 -8 0 -11 8 -28 24 -38 35 -18 20 -18 20 -6 -4 10 -21 9 -23
-5 -18 -13 5 -16 -1 -16 -33 0 -21 3 -41 8 -43 4 -3 42 1 86 9 43 7 145 19
227 25 l149 12 0 50 0 50 -26 -24 c-18 -16 -28 -20 -31 -12 -3 10 -10 9 -26
-2 -12 -7 -40 -16 -62 -20 l-40 -6 27 21 c25 19 68 79 68 94 0 4 -10 -2 -22
-14 -25 -23 -38 -26 -38 -7 -1 7 -6 5 -14 -5 -14 -19 -32 -25 -21 -8 3 5 -11
2 -32 -6 l-38 -16 24 26 24 25 -50 -6 c-37 -4 -60 -1 -83 10 -26 14 -30 14
-20 2 17 -21 -13 -21 -34 0 -16 17 -30 20 -21 5 3 -6 -1 -7 -9 -4 -9 3 -16 10
-16 15 0 5 -5 9 -11 9 -5 0 -7 -6 -3 -12z"/>
<path d="M8360 6206 c0 -2 7 -9 15 -16 9 -7 15 -8 15 -2 0 5 -7 12 -15 16 -8
3 -15 4 -15 2z"/>
<path d="M5824 5178 c-4 -13 -47 -121 -95 -241 -49 -119 -89 -222 -89 -227 0
-6 75 -10 205 -10 113 0 205 2 205 4 0 3 -32 81 -71 173 -39 92 -85 203 -102
245 -18 43 -35 78 -39 78 -4 0 -10 -10 -14 -22z"/>
<path d="M5843 3655 c-28 -14 -80 -53 -116 -86 -69 -63 -144 -156 -133 -166
11 -12 136 29 193 64 125 74 189 173 134 203 -25 13 -19 14 -78 -15z"/>
<path d="M5234 3627 c-59 -43 -152 -138 -193 -196 -21 -29 -21 -31 -4 -31 67
1 219 75 283 139 45 45 69 98 55 121 -3 5 -23 10 -44 10 -30 0 -52 -10 -97
-43z"/>
<path d="M7076 3640 c-86 -55 -240 -219 -223 -237 4 -3 28 0 54 6 157 40 317
175 289 246 -9 25 -68 18 -120 -15z"/>
<path d="M8414 3650 c-135 -67 -316 -280 -358 -420 -47 -158 89 -125 272 65
167 173 252 321 210 363 -18 18 -78 14 -124 -8z"/>
<path d="M6208 2646 c-39 -50 -40 -53 -11 -95 16 -22 30 -40 33 -40 3 -1 20
17 38 39 l32 39 -33 44 -34 45 -25 -32z"/>
</g>
</svg>
